<svg width="1619" height="1080" viewBox="0 0 1619 1080" fill="none" xmlns="http://www.w3.org/2000/svg">
<path opacity="0.1" d="M483.146 91.9771L415.78 -60.0578L73.0264 91.8154L140.393 243.85L309.263 169.625M483.146 91.9771L465.244 239.775M483.146 91.9771L309.263 169.625M465.244 239.775L292.581 316.281M465.244 239.775L509.429 220.197M292.581 316.281L309.263 169.625M292.581 316.281L152.303 379.104M943.728 322.228L654.633 450.326M943.728 322.228L779.567 287.786M943.728 322.228L835.176 77.2439M109.446 691.897L0.893647 446.912M109.446 691.897L362.263 579.874M109.446 691.897L241.178 785.666M109.446 691.897L169.682 548.421M109.446 691.897L304.252 700.091M0.893647 446.912L169.682 548.421M0.893647 446.912L152.303 379.104M362.263 579.874L425.537 627.141M362.263 579.874L398.024 564.029M362.263 579.874L304.252 700.091M425.537 627.141L433.785 548.183M425.537 627.141L468.692 658.332M433.785 548.183L398.024 564.029M433.785 548.183L654.633 450.326M217.275 1002.75L241.178 785.666M217.275 1002.75L328.757 850.032M217.275 1002.75L352.263 1101.41L462.866 949.898M241.178 785.666L328.757 850.032M328.757 850.032L468.692 658.332M328.757 850.032L304.252 700.091M468.692 658.332L528.159 576.867L663.147 675.528L462.866 949.898M468.692 658.332L304.252 700.091M1109.99 1000.98L975.003 902.316L774.722 1176.69M1109.99 1000.98L1121.42 1135.18M1109.99 1000.98L1050.21 1082.88M1121.42 1135.18L1050.21 1082.88M1121.42 1135.18L1265.9 1239.24M1050.21 1082.88L909.71 1275.35M1050.21 1082.88L1109.76 1260.4M1509.46 1414.65L1617.96 1659.51L714.488 2059.84M1509.46 1414.65L1255.67 1527.1M1509.46 1414.65L1440.16 1637.45M1509.46 1414.65L1265.9 1239.24M1509.46 1414.65L1371.76 1418.04M714.488 2059.84L605.99 1814.97M714.488 2059.84L802.166 1910.53M605.99 1814.97L1255.67 1527.1M605.99 1814.97L802.166 1910.53M1255.67 1527.1L1149.03 1449.5M1255.67 1527.1L1216.18 1381.32M1255.67 1527.1L1371.76 1418.04M909.71 1275.35L799.107 1426.86L664.119 1328.2L774.722 1176.69M909.71 1275.35L972.655 1321.15M909.71 1275.35L1109.76 1260.4M678.981 1107.19L581.735 1239.85L448.525 1145.2L685.845 816.371M678.981 1107.19L774.722 1176.69M678.981 1107.19L820.567 914.04M678.981 1107.19L914.26 982.056L820.567 914.04M774.722 1176.69L820.567 914.04M820.567 914.04L884.131 827.328L749.142 728.667L685.845 816.371M462.866 949.898L547.24 1010.22L602.404 755.268L685.845 816.371M462.866 949.898L685.845 816.371M972.655 1321.15L992.898 1571.5L1158.8 1555.62L1149.03 1449.5M972.655 1321.15L1060.84 1385.32M1149.03 1449.5L1060.84 1385.32M169.682 548.421L152.303 379.104M169.682 548.421L398.024 564.029M169.682 548.421L335.269 412.62M152.303 379.104L335.269 412.62M398.024 564.029L335.269 412.62M398.024 564.029L519.023 393.628M335.269 412.62L373.418 281.848L519.023 393.628M335.269 412.62L519.023 393.628M519.023 393.628L509.429 220.197M519.023 393.628L647.112 303.257M519.023 393.628L654.633 450.326M509.429 220.197L834.663 76.0863L835.176 77.2439M509.429 220.197L647.112 303.257M654.633 450.326L647.112 303.257M654.633 450.326L779.567 287.786M647.112 303.257L638.435 164.419L779.567 287.786M647.112 303.257L779.567 287.786M779.567 287.786L835.176 77.2439M1618.05 1659.47L1440.16 1637.45M802.166 1910.53L794.809 1731.31L976.544 1764.5M802.166 1910.53L1039.3 1915.91M802.166 1910.53L976.544 1764.5M1039.3 1915.91L976.544 1764.5M1039.3 1915.91L1160.3 1745.51M976.544 1764.5L1014.69 1633.73L1160.3 1745.51M976.544 1764.5L1160.3 1745.51M1160.3 1745.51L1152.18 1572.96L1288.39 1655.14M1160.3 1745.51L1288.39 1655.14M1160.3 1745.51L1295.91 1802.21M1295.91 1802.21L1288.39 1655.14M1295.91 1802.21L1440.16 1637.45M1288.39 1655.14L1280.67 1516.02L1440.16 1637.45M1288.39 1655.14L1440.16 1637.45M1109.76 1260.4L1060.84 1385.32M1109.76 1260.4L1265.9 1239.24M1109.76 1260.4L1216.18 1381.32M1060.84 1385.32L1216.18 1381.32M1265.9 1239.24L1216.18 1381.32M1265.9 1239.24L1371.76 1418.04M1216.18 1381.32L1371.76 1418.04" stroke="#D0D0D0" stroke-width="0.75"/>
</svg>
